<?xml version="1.0" standalone="no"?>
<!DOCTYPE svg PUBLIC "-//W3C//DTD SVG 20010904//EN"
 "http://www.w3.org/TR/2001/REC-SVG-20010904/DTD/svg10.dtd">
<svg version="1.0" xmlns="http://www.w3.org/2000/svg"
 width="2000.000000pt" height="2000.000000pt" viewBox="0 0 2000.000000 2000.000000"
 preserveAspectRatio="xMidYMid meet">

<g transform="translate(0.000000,2000.000000) scale(0.100000,-0.100000)"
fill="#000000" stroke="none">
<path d="M12302 15029 c-85 -14 -201 -57 -275 -100 -88 -52 -196 -154 -251
-238 -24 -36 -499 -976 -1055 -2088 l-1011 -2023 228 0 227 0 354 354 c204
204 351 358 347 365 -21 33 43 68 72 39 28 -28 -6 -82 -46 -72 -12 3 -125
-104 -367 -346 l-350 -350 -235 0 -235 0 -111 -222 -111 -223 -536 1070 -536
1070 0 -1196 -1 -1196 -52 15 c-77 22 -294 21 -378 -1 -90 -24 -233 -96 -305
-154 -275 -223 -371 -600 -235 -926 170 -409 652 -597 1057 -412 87 40 144 79
221 150 l58 54 108 -54 c127 -62 250 -105 396 -136 142 -31 441 -34 570 -6
231 50 426 151 594 308 148 138 181 193 492 812 l285 567 -323 0 -323 0 -160
-160 -160 -160 -260 0 c-151 0 -266 4 -275 10 -10 6 79 10 260 10 l275 0 155
155 155 155 330 0 330 0 93 185 92 185 -453 0 -452 0 -225 -225 -225 -225
-265 2 -265 3 260 2 260 3 225 225 225 225 460 0 460 0 93 185 92 185 -453 0
-452 0 -245 -245 -245 -245 -292 0 c-189 0 -293 4 -293 10 0 6 104 10 293 10
l292 0 240 240 240 240 460 0 460 0 158 315 157 315 -870 0 c-573 0 -870 3
-870 10 0 7 298 10 875 10 l874 0 64 125 63 125 -875 3 -876 2 880 3 880 3 57
120 57 119 -870 0 c-578 0 -868 3 -864 10 4 7 307 10 876 10 l869 0 65 130 65
130 -870 0 c-573 0 -870 3 -870 10 0 7 298 10 875 10 l875 0 190 380 190 380
-194 0 c-167 0 -195 -2 -200 -16 -8 -20 -55 -15 -70 9 -8 12 -8 22 0 35 15 23
62 28 70 8 5 -14 33 -16 199 -16 170 0 194 2 207 18 27 30 373 731 365 739 -4
4 -139 -124 -300 -285 l-292 -292 -715 2 -715 3 710 2 710 3 288 288 c238 238
287 292 287 315 0 33 40 58 63 38 12 -9 19 3 40 66 41 125 52 199 38 240 -7
19 -10 37 -7 41 4 3 -53 66 -126 139 l-133 133 -425 0 -425 0 -315 -315 c-299
-299 -317 -315 -350 -313 -34 1 -34 1 -4 5 24 3 92 66 349 323 l320 320 425 0
425 0 137 -137 c76 -75 139 -135 141 -133 8 10 -33 188 -58 253 -59 149 -202
315 -338 391 -157 88 -347 123 -515 95z m485 -876 c13 -19 12 -24 -6 -42 -26
-26 -36 -26 -61 -1 -19 19 -33 20 -208 20 l-187 0 -245 -245 -245 -245 -293 0
c-193 0 -291 3 -287 10 4 6 113 10 293 10 l287 0 240 240 240 240 195 0 c186
0 196 1 208 21 16 25 50 22 69 -8z m-839 -1175 c34 -34 -6 -90 -48 -68 -11 6
-20 15 -20 20 0 6 -184 11 -492 12 l-493 3 489 2 c476 3 490 4 503 23 16 22
43 26 61 8z m220 -50 c29 -29 -2 -87 -40 -73 -8 3 -101 -83 -228 -210 l-215
-215 -520 2 -520 3 515 2 515 3 213 213 c165 165 212 217 212 237 0 30 17 50
40 50 9 0 21 -5 28 -12z m-637 -228 c21 -12 25 -50 7 -68 -18 -18 -46 -14 -60
8 -12 19 -25 20 -368 22 l-355 3 353 2 c336 3 353 4 372 23 23 23 25 23 51 10z
m-1203 -1538 c7 -44 -41 -70 -68 -37 -10 12 -38 15 -131 15 -73 0 -119 4 -119
10 0 6 46 10 119 10 99 0 120 3 125 16 4 10 16 14 38 12 26 -2 34 -8 36 -26z
m-108 -202 c23 -44 -38 -83 -70 -45 -10 12 -38 15 -132 15 -77 0 -117 4 -113
10 4 6 55 10 119 10 89 0 116 3 126 15 18 21 57 19 70 -5z"/>
<path d="M14090 14240 l0 -792 73 7 c306 30 563 220 669 493 194 499 -132
1024 -669 1077 l-73 7 0 -792z"/>
<path d="M3360 7395 l0 -145 175 0 175 0 0 145 0 145 -175 0 -175 0 0 -145z"/>
<path d="M6170 6760 l0 -780 165 0 165 0 0 780 0 780 -165 0 -165 0 0 -780z"/>
<path d="M11570 6760 l0 -780 165 0 165 0 0 780 0 780 -165 0 -165 0 0 -780z"/>
<path d="M14430 7395 l0 -145 175 0 175 0 0 145 0 145 -175 0 -175 0 0 -145z"/>
<path d="M9114 7481 c-200 -54 -322 -178 -355 -361 -10 -56 -10 -87 -1 -148
32 -203 141 -293 465 -382 195 -53 251 -75 292 -114 29 -28 35 -40 35 -75 0
-90 -61 -140 -181 -149 -137 -10 -275 35 -417 134 -35 25 -66 44 -67 42 -2 -2
-46 -55 -99 -118 l-95 -115 22 -18 c202 -163 466 -244 705 -217 212 24 351
112 425 268 31 64 32 72 32 192 0 114 -2 130 -26 180 -60 128 -188 206 -465
284 -253 71 -294 96 -294 187 0 36 6 55 25 78 74 87 296 66 477 -46 57 -35 74
-41 83 -31 7 7 46 64 89 125 l76 113 -42 31 c-67 48 -169 96 -265 125 -123 36
-316 43 -419 15z"/>
<path d="M1700 7474 c0 -12 593 -1488 603 -1501 7 -9 49 -13 148 -13 127 0
139 2 149 20 13 24 600 1486 600 1494 0 3 -80 6 -178 6 l-177 0 -195 -525
c-140 -377 -197 -521 -203 -508 -4 10 -92 245 -195 523 l-187 505 -183 3
c-100 1 -182 -1 -182 -4z"/>
<path d="M4050 7275 l0 -145 -65 0 -65 0 0 -140 0 -140 64 0 64 0 4 -322 c5
-354 10 -386 67 -465 47 -65 123 -97 242 -101 106 -5 175 6 244 39 l45 21 0
134 0 135 -32 -17 c-48 -25 -161 -31 -192 -10 -39 25 -46 73 -46 339 l0 247
135 0 135 0 0 140 0 140 -135 0 -135 0 0 145 0 145 -165 0 -165 0 0 -145z"/>
<path d="M13590 7275 l0 -144 -67 -3 -68 -3 -3 -137 -3 -138 70 0 70 0 3 -332
c3 -320 4 -335 26 -390 28 -71 90 -128 163 -151 106 -35 312 -14 387 38 21 15
22 23 22 141 0 68 -3 124 -7 124 -5 0 -30 -7 -57 -15 -59 -18 -145 -19 -167
-2 -36 28 -39 51 -39 321 l0 266 135 0 135 0 0 140 0 140 -135 0 -135 0 0 145
0 145 -165 0 -165 0 0 -145z"/>
<path d="M7186 7134 c-150 -36 -297 -151 -364 -284 -92 -185 -95 -408 -8 -585
94 -188 274 -299 506 -312 175 -9 329 43 445 152 l60 56 -75 70 c-116 108
-113 107 -153 72 -63 -55 -123 -78 -220 -81 -102 -5 -157 11 -215 62 -33 29
-82 114 -82 144 0 9 87 12 401 12 l402 0 -6 118 c-15 311 -171 524 -425 578
-84 17 -189 17 -266 -2z m257 -285 c21 -15 49 -42 63 -60 24 -33 61 -136 51
-145 -2 -2 -112 -3 -244 -2 l-240 3 13 46 c21 70 72 139 124 167 38 20 56 23
120 20 61 -3 82 -8 113 -29z"/>
<path d="M10565 7135 c-137 -30 -237 -87 -332 -188 -102 -109 -153 -241 -153
-394 0 -110 14 -172 61 -270 128 -268 458 -397 765 -299 194 62 349 225 399
421 19 75 19 223 0 295 -44 166 -159 308 -308 379 -137 66 -295 86 -432 56z
m250 -294 c158 -72 227 -271 151 -436 -32 -70 -68 -109 -128 -139 -74 -37
-192 -37 -266 0 -108 54 -167 157 -167 295 0 65 5 85 33 142 35 71 84 118 149
142 56 20 179 19 228 -4z"/>
<path d="M15505 7135 c-136 -30 -238 -87 -332 -188 -212 -227 -204 -595 18
-817 163 -164 420 -221 655 -146 194 62 349 225 399 421 20 77 19 221 -1 299
-41 161 -159 304 -307 375 -137 66 -295 86 -432 56z m251 -294 c62 -28 120
-86 150 -149 22 -46 28 -72 28 -132 1 -41 -5 -96 -12 -121 -20 -68 -78 -138
-141 -171 -46 -24 -65 -28 -135 -28 -154 1 -253 79 -292 232 -21 81 -13 155
27 236 32 66 85 114 152 139 52 19 175 16 223 -6z"/>
<path d="M17067 7140 c-64 -16 -134 -58 -186 -110 l-50 -50 -3 72 -3 73 -165
0 -165 0 -3 -572 -2 -573 170 0 170 0 0 362 c0 348 1 363 21 406 30 61 82 93
161 99 84 6 142 -22 178 -87 l25 -45 3 -367 3 -368 164 0 165 0 0 408 c0 433
-5 483 -51 574 -32 63 -110 133 -176 158 -65 25 -196 35 -256 20z"/>
<path d="M5215 7133 c-110 -13 -299 -76 -292 -97 2 -6 21 -62 41 -123 21 -62
41 -113 45 -113 4 0 33 9 64 19 80 28 208 45 283 38 127 -12 204 -81 204 -184
0 -33 -1 -35 -27 -28 -210 53 -387 45 -530 -25 -106 -52 -169 -150 -180 -278
-16 -196 113 -350 321 -382 132 -21 289 21 379 100 l37 32 0 -56 0 -56 160 0
160 0 0 378 c0 346 -2 386 -20 457 -24 95 -54 148 -115 204 -90 83 -219 122
-395 119 -58 0 -118 -3 -135 -5z m310 -676 l40 -14 0 -60 c0 -48 -5 -67 -27
-100 -76 -116 -315 -134 -379 -29 -50 81 -1 184 101 215 47 14 215 7 265 -12z"/>
<path d="M3370 6555 l0 -575 165 0 165 0 0 575 0 575 -165 0 -165 0 0 -575z"/>
<path d="M12194 7116 c-3 -8 -4 -200 -2 -428 4 -395 5 -416 26 -478 40 -118
119 -199 227 -233 159 -50 302 -17 418 96 l57 55 0 -74 0 -74 165 0 165 0 0
575 0 575 -165 0 -165 0 0 -347 c0 -202 -4 -363 -10 -384 -26 -95 -93 -143
-197 -142 -82 1 -135 33 -166 101 -21 45 -22 63 -25 410 l-3 362 -160 0 c-128
0 -161 -3 -165 -14z"/>
<path d="M14440 6555 l0 -575 165 0 165 0 0 575 0 575 -165 0 -165 0 0 -575z"/>
<path d="M11662 5719 c-75 -38 -113 -107 -127 -232 -6 -62 -10 -71 -36 -85
-36 -21 -34 -46 4 -50 l27 -3 0 -224 c0 -242 -1 -247 -56 -261 -16 -4 -24 -12
-22 -22 3 -14 23 -17 141 -18 127 -1 137 0 137 17 0 12 -10 21 -27 25 -63 15
-63 16 -63 260 l0 222 64 4 c35 1 77 1 92 -2 l29 -5 5 -235 c3 -162 9 -242 18
-257 30 -52 82 -66 150 -38 49 21 82 53 82 82 0 28 0 28 -44 2 -82 -48 -98 -4
-94 258 l3 188 60 3 c32 2 65 8 71 13 18 15 50 -9 69 -51 8 -19 53 -138 99
-265 54 -150 89 -231 99 -233 11 -2 32 41 82 168 37 94 69 170 70 168 2 -2 31
-75 65 -163 33 -88 65 -164 70 -169 19 -19 37 18 115 239 95 270 106 292 151
311 61 26 37 37 -79 38 -80 1 -107 -2 -107 -11 0 -7 16 -19 35 -27 27 -12 35
-21 35 -41 0 -31 -88 -312 -100 -320 -9 -6 -7 -11 -71 163 -60 163 -62 188
-17 200 18 4 34 15 36 23 2 12 -38 14 -270 13 -150 0 -306 2 -345 4 l-73 4 0
58 c0 32 -4 61 -9 65 -6 3 -23 -15 -40 -39 -17 -24 -49 -60 -72 -80 -35 -30
-44 -33 -53 -21 -7 8 -33 15 -66 17 l-55 3 2 96 c4 169 43 225 98 140 34 -51
50 -56 75 -24 27 34 26 78 -2 97 -32 23 -105 20 -156 -5z m745 -371 c23 -19
53 -88 53 -124 0 -35 -62 -214 -75 -217 -12 -3 -115 280 -115 315 0 20 7 31
23 38 28 12 93 6 114 -12z"/>
<path d="M10465 5661 c-83 -38 -127 -115 -127 -217 1 -110 36 -160 173 -241
95 -57 144 -106 159 -163 27 -99 -42 -200 -136 -200 -67 0 -142 76 -159 160
-3 19 -9 43 -11 53 -6 19 -34 23 -35 5 0 -7 -2 -44 -4 -81 -8 -132 35 -172
185 -172 68 0 93 5 126 22 48 26 98 79 121 131 22 50 22 174 -1 225 -24 54
-90 115 -174 161 -130 71 -161 116 -141 204 19 88 130 125 188 63 15 -16 36
-51 46 -78 37 -98 55 -93 55 15 0 42 -4 82 -8 89 -26 41 -187 56 -257 24z"/>
<path d="M14653 5647 c-7 -12 5 -21 45 -32 l37 -11 3 -354 c2 -325 1 -356 -15
-367 -9 -7 -27 -13 -40 -13 -22 0 -42 -24 -30 -36 6 -7 297 -8 303 -1 10 10
-10 37 -28 37 -11 0 -28 5 -39 10 -18 10 -19 23 -19 190 l0 180 160 0 160 0 0
-180 c0 -167 -1 -180 -19 -190 -11 -5 -29 -10 -41 -10 -20 0 -38 -25 -27 -36
7 -7 297 -7 304 0 12 12 -8 36 -30 36 -13 0 -31 6 -40 13 -16 11 -17 42 -15
367 l3 354 40 12 c22 6 40 17 40 24 0 11 -32 14 -150 14 -118 0 -150 -3 -150
-14 0 -7 18 -18 40 -24 l40 -12 3 -152 3 -152 -161 0 -160 0 0 154 0 154 40 7
c28 5 40 12 40 23 0 15 -17 17 -146 17 -80 0 -148 -4 -151 -8z"/>
<path d="M13554 5418 c-11 -11 -43 -36 -71 -55 -58 -37 -65 -53 -30 -68 22
-10 22 -12 22 -210 l0 -200 -32 -14 c-18 -8 -33 -22 -33 -31 0 -13 18 -16 138
-15 115 0 137 2 137 15 0 8 -13 20 -30 25 -57 19 -55 12 -55 226 0 119 4 208
10 220 15 27 39 23 80 -11 43 -37 72 -38 100 -3 42 54 -1 133 -72 133 -31 0
-47 -8 -83 -41 l-45 -42 0 41 c0 49 -11 59 -36 30z"/>
<path d="M11036 5415 c-159 -56 -228 -276 -146 -462 40 -91 111 -141 210 -150
124 -12 225 47 275 159 24 53 29 76 29 148 0 117 -22 179 -88 245 -32 32 -66
55 -92 63 -54 16 -139 15 -188 -3z m174 -63 c52 -52 74 -127 73 -258 0 -86 -3
-108 -26 -157 -59 -130 -184 -130 -245 1 -25 53 -27 66 -27 192 0 122 2 139
23 178 28 52 74 82 126 82 31 0 45 -7 76 -38z"/>
<path d="M13060 5409 c-76 -34 -130 -98 -130 -154 0 -15 7 -28 17 -32 29 -11
67 21 103 87 38 69 75 95 108 74 14 -9 17 -28 17 -115 l0 -104 -45 -23 c-148
-79 -200 -139 -200 -231 0 -45 4 -57 29 -82 48 -48 94 -40 180 29 41 34 45 35
55 18 42 -71 85 -88 135 -54 47 32 78 75 64 89 -8 8 -19 6 -40 -5 -50 -25 -53
-14 -53 213 0 232 -7 274 -50 296 -42 22 -136 19 -190 -6z m120 -375 c0 -81
-1 -87 -29 -115 -54 -53 -101 -30 -101 49 0 59 25 99 82 129 24 12 44 22 46
23 1 0 2 -39 2 -86z"/>
<path d="M14000 5417 c-19 -6 -56 -32 -82 -58 -83 -83 -111 -242 -68 -380 36
-116 114 -179 222 -179 71 0 168 46 202 97 37 54 23 68 -29 29 -76 -59 -163
-56 -222 6 -51 55 -66 94 -67 183 l-1 80 170 5 170 5 -1 47 c0 56 -36 115 -89
148 -44 27 -150 36 -205 17z m158 -52 c22 -26 29 -69 14 -92 -13 -21 -62 -33
-138 -33 -85 0 -88 4 -54 77 37 82 127 106 178 48z"/>
<path d="M15647 5416 c-45 -17 -99 -57 -125 -93 -86 -124 -73 -339 27 -446 82
-89 247 -101 351 -26 113 82 149 284 78 436 -25 54 -94 116 -146 131 -52 16
-138 14 -185 -2z m167 -56 c42 -38 64 -91 76 -187 18 -141 -17 -273 -83 -313
-68 -42 -139 -14 -184 72 -27 51 -28 59 -28 193 0 127 2 144 23 183 45 84 133
107 196 52z"/>
<path d="M16815 5416 c-66 -29 -113 -119 -100 -190 12 -60 39 -89 134 -145 50
-29 98 -63 106 -75 8 -11 15 -42 15 -67 0 -40 -4 -51 -31 -73 -41 -35 -80 -34
-124 5 -24 22 -40 48 -51 85 -28 96 -54 81 -54 -32 0 -55 4 -74 18 -86 25 -22
79 -38 126 -38 139 0 224 91 214 230 -6 80 -38 119 -148 180 -64 36 -87 54
-97 78 -23 56 11 102 75 102 39 0 76 -31 96 -81 22 -55 40 -46 44 22 4 77 -15
93 -117 97 -48 1 -87 -3 -106 -12z"/>
<path d="M17295 5411 c-56 -25 -117 -97 -138 -163 -25 -79 -23 -212 4 -283 54
-145 190 -204 324 -141 51 23 115 85 115 111 0 21 -24 18 -45 -5 -9 -10 -37
-27 -61 -36 -77 -29 -153 2 -200 82 -23 40 -29 62 -32 136 l-4 88 173 2 c195
3 190 1 169 77 -14 52 -63 109 -115 132 -52 24 -138 24 -190 0z m144 -26 c40
-20 59 -70 40 -103 -18 -32 -43 -40 -136 -41 -72 -1 -73 -1 -73 24 0 32 21 74
52 101 40 37 73 42 117 19z"/>
<path d="M16068 5409 c-14 -9 -2 -39 15 -39 8 0 21 -8 30 -17 13 -15 16 -53
19 -223 3 -185 5 -208 24 -240 58 -99 185 -115 275 -33 l39 35 0 -40 c0 -23 5
-44 10 -47 16 -10 147 33 154 50 3 9 -3 19 -17 26 -12 7 -24 14 -27 16 -3 3
-7 118 -10 256 l-5 252 -80 6 c-108 8 -134 -14 -60 -51 l30 -16 3 -154 c4
-196 -2 -235 -38 -272 -22 -22 -38 -28 -70 -28 -103 0 -114 29 -118 302 l-4
217 -80 3 c-44 2 -85 0 -90 -3z"/>
<path d="M1700 5180 l0 -71 63 3 c56 3 62 5 65 26 l3 22 4025 0 4024 0 0 -25
c0 -24 2 -25 65 -25 l65 0 0 70 0 70 -65 0 c-63 0 -65 -1 -65 -25 l0 -25
-4024 0 -4025 0 -3 23 c-3 20 -9 22 -65 25 l-63 3 0 -71z"/>
</g>
</svg>
